<?xml version="1.0" encoding="UTF-8"?>
<svg xmlns="http://www.w3.org/2000/svg" version="1.1" viewBox="0 0 2500 2500">
  <defs>
    <style>
      .cls-1 {
        fill: #fff;
        fill-rule: evenodd;
      }
    </style>
  </defs>
  <!-- Generator: Adobe Illustrator 28.7.1, SVG Export Plug-In . SVG Version: 1.2.0 Build 142)  -->
  <g>
    <g id="Layer_1">
      <g>
        <path class="cls-1" d="M453.7,1006.4h4.1v-9.7h-134.1v9.7c16.7,0,30.9,2.8,40.9,8.8s16,15.1,16,27.6v233.9l-121.9-140.4-121.9-140.4H36.8v8.9l7.3,2,7.3,2c6.1,2.8,14.2,8.1,22.6,15.1,8.3,7,16.9,15.7,23.8,25.4l.8,1.2.8,1.2v292.2c0,19.4-4.5,31.8-12.9,39.3s-20.8,10.1-36.7,10.1h-3.2v9.7h8.9c4.5,0,13.4-.4,23.9-.8s22.5-.8,33-.8l33.7.8,33.7.8v-9.7c-17.9,0-31.3-3.6-40.2-13.4s-13.4-25.5-13.4-49.8v-245.3l253.6,296.3c6.5,7.7,11.4,12.7,15,15.9s6.1,4.4,7.7,4.4,2.8-1,3.7-2.8c.8-1.8,1.2-4.4,1.2-7.7l-.4-21-.4-21v-301.9c0-15,2.4-25.1,9.5-31.5,7.1-6.4,18.9-9,37.6-9h0ZM894.3,1373.5c-9.8-4.5-14.6-7.7-17.1-30.8-2.4-23.1-2.4-66-2.4-149.7v-58.3l-91,.8h-3.2v6.5c.4,1.2.6,1.8,1.1,2.1s1.3.3,3,.3c17.5,0,28,3,34.2,10.3s8,18.8,8,35.8v153c-13,13-23.2,21.7-33,27.1-9.9,5.5-19.4,7.7-31.2,7.7-17.1,0-28.2-6.5-35.1-19.6-6.9-13.2-9.5-33-9.5-59.7v-164.3l-91-.8v8.1c.4,1.2.8,1.8,1.6,2.1s2,.3,4.1.3c15,0,24.6,2,30.4,9.3,5.8,7.3,7.8,19.8,7.8,40.9v126.3c0,28.3,6.1,52,18.2,68.6,12.1,16.6,30.2,26.1,54.1,26.1s21.1-3.8,35.4-12.3c14.2-8.5,30.5-21.7,47.5-40.3l1.2-1.2,1.2-1.2v52.6l45.9-16.6,45.9-16.6v-5.7c-.9-.3-1.8-.6-2.7-.7-.7-.1-1.3-.1-2.1-.1h-21.1ZM2163.8,1357.2v-170c0-18.2-7.3-34.2-19.4-45.6-12.1-11.4-28.9-18.3-48.1-18.3s-17,0-28.4,6c-11.3,6-28.1,17.9-61.9,41.8l-.8.8-.8.8v-51l-43.1,19-43.1,19v7.3c11,0,21.1.6,28.5,4.2s12.1,10,12.1,21.8v164.3c0,12.6-1.2,21.5-4.5,27.3-3.3,5.9-8.5,8.7-16.7,9.1l-6.9.4-6.9.4v8.1h117.8v-8.1c-13.8,0-23.2-1.4-29.1-5.8-5.9-4.4-8.3-11.6-8.3-23.4l.8-172.4c24.8-18.2,37.2-27.3,45.7-31.9s13.2-4.6,22.5-4.6c14.6,0,26,5.5,33.7,15.6,7.7,10.1,11.8,24.9,11.8,43.5v141.6c0,15.8,0,23.7-4.7,28.4-4.7,4.6-14,6.1-32.7,8.9v8.1h119.5v-8.1c-.6-.3-1.3-.6-1.9-.7-.5,0-.9,0-1.3,0-13.8,0-22.3-1.6-27.4-7-5.1-5.3-6.7-14.4-6.7-29.4h0ZM1452.1,1164.5c-24.3-27-57.2-43.4-91.7-43.4s-66.4,16.2-90.2,42.3c-23.8,26.1-39,62.1-39,101.8s15.7,77.7,39.9,103.8c24.3,26.1,57.2,41.9,91.7,41.9s67.7-15.2,91.1-40.2c23.5-25,38.1-59.8,38.1-99.1s-15.6-80.1-39.9-107.1ZM1424.2,1362.6c-11.8,18.4-28.9,29.5-50,29.5s-48.2-17-65.8-44.2c-17.7-27.2-29.3-64.7-29.3-105.5s5.9-51.4,17.1-69.4c11.3-18,27.9-29.4,49.5-29.4s51.8,17.2,69.1,44c17.2,26.8,27.6,63.2,27.6,101.7s-6.5,54.9-18.3,73.3h0Z"/>
        <path class="cls-1" d="M1702.7,1359.7c-13.8-10.7-33.7-15.8-58.1-15.8l-31.3.4-31.3.4c-15.4,0-25.6-1.2-31.9-3.9-6.3-2.7-8.7-7-8.7-13.1s1.4-8.9,4.2-13.6c3-5,7.1-9.3,12.1-12.3l1.2-.8,1.2-.8c8.5,1.6,15.6,2.6,21.6,3.2s10.9.8,14.9.8c27.6,0,51.2-8.9,67.9-24.7,16.6-15.8,26.4-38.5,26.4-66s0-5.9-1.2-11.2c-1.2-5.4-3.6-14.3-8.5-32.5h39.8v-25.1h-64.2c-13.8-8.5-24.2-14-33.7-17.3-9.5-3.3-18.3-4.6-28.9-4.6-26.4,0-51,10.7-69,27.8-18,17.1-29.4,40.6-29.4,66.1s4.5,28.7,12.3,42.8c7.8,14.1,19,26,32.4,30l-4.9,6.5-4.9,6.5c-10.6,10.1-17.9,18.2-22.5,25.7-4.7,7.5-6.7,14.4-6.7,22.1,0,15.8,5.9,22.5,11.8,25.9,5.9,3.4,11.8,3.6,11.8,6.5s-11.6,12.3-23.2,25c-11.6,12.7-23.2,28-23.2,41.4s12.2,28.7,31.8,38.8c19.6,10,46.6,16.3,76.3,16.3s70.5-10.7,95.8-27.9c25.3-17.2,41.5-40.9,41.5-66.8,0-22.6-7.7-39.1-21.5-49.8h0ZM1556.2,1158.8c6.7-10.3,16.7-16.4,29.7-16.4s29.9,10.7,39.9,27.2c10.1,16.5,16.2,38.8,16.2,61.8s-3.9,29.5-11.3,39.4c-7.4,9.8-18.4,15.7-32.6,15.7s-27.2-8.7-36.7-23.8c-9.5-15.1-15.4-36.5-15.4-62,0-17,3.5-31.6,10.2-41.9h0ZM1681.5,1453.9c-14.6,9.9-36.2,16.4-63.8,16.4s-53.8-4.6-70.1-12c-16.2-7.4-25-17.5-25-28.4,0-17.4,3.9-28.3,12-34.9,8.1-6.6,20.5-8.8,37.6-8.8,59.3,0,92.2-.2,110.3,3.5s21.3,11.4,21.3,27.2c0,13.8-7.7,27.1-22.3,37ZM2403.8,1372.1c-4,2.3-5.7,2.3-8.9,2.3s-7.9-2.2-10.3-7.3c-2.3-5.1-3.5-12.9-3.5-24.3l.8-127.1c0-31.6-7.7-54.8-22.7-70.2-15-15.4-37.4-22.9-66.7-22.9s-48.2,7.1-66.8,18.9-31.5,28.4-31.5,47.5,2.4,17.2,6.5,21.8c4.1,4.6,9.8,6.6,16.3,6.6s13.8-2.4,18.5-6.5c4.7-4,7.5-9.7,7.5-16.2,0-5.6-.3-11.2-1.2-16.8-.6-3.4-1.2-5.1-1.2-5.9,0-10.9,5.1-19.6,13.2-25.6s19.3-9.2,31.5-9.2,24.4,4.9,32.5,14.1c8.1,9.2,13,22.8,13,40.2l-.4,17.8-.4,17.8-29.7,11.7-29.7,11.7c-26.8,10.5-47.8,23.5-62,38.4-14.2,14.9-21.7,31.7-21.7,49.9s6.3,37.6,16.8,50c10.5,12.3,25.1,19.6,41.7,19.6s26-2.8,39.9-8.9,28.8-15.4,45.4-28.3l.8-.8.8-.8c2,10.9,5.7,20.8,11.6,28s14,11.6,25,11.6,17.5-3,26.9-9c9.4-6,19.4-14.9,30-26.6l.8-1.2.8-1.2v-15.4c-13,9.3-19.5,14-23.6,16.3h0ZM2329.1,1351.8l-.8,1.2-.8,1.2c-6.5,6.5-14.2,11.7-22.2,15.4s-16.4,5.7-24.1,5.7c-12.2,0-23.4-6.1-31.5-15.3s-13.2-21.6-13.2-34.1c0-17.8,6.1-30.8,20.8-42.9,14.7-12.2,38.1-23.5,72.7-38.1l-.8,106.8h0ZM652.9,1303.4c-.5-1.6-1.5-2.8-3.6-2.8s-8.1,16.4-20.8,32.8-32.4,32.8-62.9,32.8-53.2-14.6-68.5-37.2c-15.2-22.7-23-53.4-23.4-85.8v-5.7l76-.4,76-.4c9.4,0,14.4,0,17.2-.9,2.7-.9,3.2-2.7,3.2-6.4,0-27.3-10.1-53.7-28.4-74-17.8-19.5-42.8-32.1-71.6-32.1s-62.8,15.6-82.9,41.4c-20.1,25.8-31.7,61.8-31.7,102.7s13.2,76.3,34.1,103.5c20.9,27.2,49.6,44.6,80.5,44.6,12.1,0,24.1-2.6,35.1-7.7,11.2-5.1,21.7-12.5,31.5-22.3,6.5-6.5,16.7-20.6,25.2-35.7,8.5-15.1,15.4-31.1,15.4-41.2,0-1.8,0-3.5-.5-5.2h0ZM477.4,1212.5l.4-2.4c3.2-20.2,10.4-36.2,20.4-47.1,10.1-10.9,23.1-16.8,38.1-16.8s24,5.9,33.2,15.4c9.2,9.5,15.5,22.7,15.5,37.2s-2,11.5-8.1,13.7c-6.1,2.1-100,2.5-100,2.5l.4-2.5h0Z"/>
        <path class="cls-1" d="M1927.8,1303.4c-.5-1.6-1.5-2.8-3.5-2.8s-8.1,16.4-20.9,32.8-32.7,32.8-63.6,32.8-50.8-12.6-66.6-33c-15.7-20.4-24.5-48.8-24.5-80.3s.2-9.1.8-11.6c.6-2.5,1.6-3.7,3.2-3.7l74-.4,74-.4c9.8,0,14.8,0,17.5-.9,2.7-.9,2.9-2.7,2.9-6.4,0-28.3-10.6-54.8-28.4-74.3-17.8-19.4-42.8-31.8-71.6-31.8s-62.4,15.4-82.6,41c-20.2,25.6-32,61.4-32,102.3s13,76.5,33.8,103.9c20.8,27.4,49.5,45,80.8,45s23.8-2.8,35.2-8c11.7-5.4,22.4-12.8,31.5-21.9,6.9-6.9,17.1-21.3,25.5-36.3s15.1-30.9,15.1-40.6c0-1.6,0-3.6-.5-5.3h0ZM1752.4,1212.5l.4-2.4c3.3-19.8,10.4-35.8,20.4-46.8,10.1-11,23-17.1,38.1-17.1s23.6,5.7,32.9,15.1c9.4,9.4,15.9,22.6,15.9,37.5s-1.6,11.5-7.5,13.7c-5.9,2.1-100.6,2.5-100.6,2.5l.4-2.5h0ZM1188.1,1163.8c8.5,0,12.4,4.3,17.1,8.5,4.7,4.3,10.2,8.5,21.9,8.5s14.2-2.2,18.3-6.7c4.1-4.4,6.1-11.1,6.1-20s-2.8-15.6-8-21.5c-5.5-6.4-13.6-10.1-22-10-8.9,0-13.4,0-21.9,5.9-8.5,5.9-21.1,17.6-46.3,41.1l-1.6,1.2-1.6,1.2v-51.8l-43.1,17-43.1,17v5.7c.5.5,1,1,1.6,1.4.4.2.8.2,1.6.2,13.8,0,23.6.8,29.9,3.6,6.3,2.8,9.1,7.7,9.1,15.8l.8,181.3c0,10.9-3.3,18.2-9.6,22.8-6.4,4.6-15.9,6.4-28.5,6.4s-2.6,0-3.7.2c-1.3.3-2.5.8-3.7,1.4v8.9h140.6v-7.3c0-.8-.4-1.4-1.3-1.8-1.4-.5-2.9-.7-4.4-.6-14.6,0-26.2-3.9-34.1-12s-12.2-20.7-12.2-38.1v-147.3c10.6-13.4,16.9-21,22.2-25.4s9.5-5.4,16-5.4ZM1053.6,1353.1c-2.4,0-5.1,5.9-10.9,11.7-5.8,5.9-14.7,11.7-29.8,11.7s-16.5-3.6-21.7-11c-5.3-7.4-8.3-18.5-8.3-33.5v-182.1h52.8v-20.2h-52.8v-77.7h-13.8c-4.9,14.6-8.7,25.1-12.9,33.8s-8.6,15.6-14.7,22.9c-9.4,11.7-20.3,19.2-29.9,24.5-9.5,5.3-17.7,8.3-21.3,11.1v5.7c17.1.8,27.6,1.2,33.9,1.6,6.3.4,8.3.8,8.3,1.6v178.9c0,24.3,5.3,44.5,14.9,58.7s23.7,22.3,41.1,22.3,25.8-5.3,40.9-14.7,28.1-23,28.1-39.6c0-1.3-.4-2.6-1.1-3.7-.7-1.1-1.7-1.9-3-1.9h0ZM2432.5,1132.4c-16.7,0-30.9,12.8-30.9,30.2s14.2,30.4,30.9,30.4,30.8-12.8,30.8-30.4-14.2-30.2-30.8-30.2ZM2432.5,1187.9c-13.9,0-24.8-10.7-24.8-25.3s10.8-25.2,24.8-25.2,24.6,10.8,24.6,25.2-10.9,25.3-24.6,25.3Z"/>
      </g>
      <path class="cls-1" d="M2437.4,1164.8c5.2-.6,9.1-3.4,9.1-9.6s-4.1-9.9-12.4-9.9h-13.3v34.9h5.3v-15.1h6.1l9.2,15.1h6l-10-15.4h0ZM2426.1,1160.5v-10.8h7.3c3.7,0,7.7.8,7.7,5.1s-4,5.7-8.5,5.7h-6.4Z"/>
    </g>
  </g>
</svg>